<?xml version="1.0" encoding="utf-8"?>
<!-- Generator: Adobe Illustrator 27.3.1, SVG Export Plug-In . SVG Version: 6.00 Build 0)  -->
<svg version="1.1" id="Layer_1" xmlns="http://www.w3.org/2000/svg" xmlns:xlink="http://www.w3.org/1999/xlink" x="0px" y="0px"
	 viewBox="0 0 200 36" style="enable-background:new 0 0 200 36;" xml:space="preserve">
<style type="text/css">
	.st0{fill:#F05537;}
</style>
<path class="st0" d="M186.29,17.51c2.6-0.6,5.31,0.42,6.88,2.58l-11.9,2.69C181.68,20.27,183.6,18.12,186.29,17.51z M193.24,27.42
	c-0.94,1.36-2.36,2.32-3.98,2.68c-2.71,0.61-5.42-0.51-6.91-2.63l11.94-2.7l1.95-0.44l3.72-0.84c-0.02-0.8-0.13-1.59-0.31-2.37
	c-1.51-6.43-8.06-10.43-14.61-8.95c-6.56,1.48-10.64,7.9-9.13,14.32c1.51,6.43,8.05,10.43,14.61,8.95c3.86-0.88,6.87-3.46,8.38-6.75
	L193.24,27.42z M165.14,35.12V18.08h-3.68v-5.8h3.68V4.29h6.24v7.99h4.69v5.8h-4.69v17.04H165.14z M153.21,35.12h6.03V12.28h-6.03
	V35.12z M152.42,4.26c0-2.11,1.67-3.7,3.82-3.7s3.77,1.59,3.77,3.7c0,2.11-1.62,3.75-3.77,3.75S152.42,6.38,152.42,4.26z
	 M151.11,12.34c-3.08,0.16-4.9,0.63-6.75,1.97v-2.04h-6.03v22.84h6.03v-11.2c0-3.52,0.86-5.53,6.75-5.73L151.11,12.34L151.11,12.34z
	 M117.51,24.06c0.15,3.33,3.05,6.13,6.6,6.13c3.6,0,6.55-2.94,6.55-6.42c0-3.43-2.95-6.37-6.55-6.37c-3.55,0-6.45,2.84-6.6,6.13
	V24.06z M111.63,35.12V1.38l6.03-1.36v13.96c1.86-1.49,4.07-2.11,6.47-2.11c6.86,0,12.36,5.29,12.36,11.92
	c0,6.58-5.49,11.97-12.35,11.97c-2.4,0-4.61-0.62-6.47-2.11v1.49L111.63,35.12C111.63,35.12,111.63,35.12,111.63,35.12z
	 M98.79,35.12V17.97h-3.68v-5.69h3.68V4.28l6.24-1.41v9.41h4.69v5.69h-4.69v17.15H98.79z M87.74,35.12v-12.2
	c0-4.42-2.4-5.38-4.81-5.38c-2.4,0-4.8,0.91-4.8,5.29v12.3H72.1V12.28h6.03v1.7c1.32-0.96,2.94-2.11,6.13-2.11
	c5.1,0,9.51,2.93,9.51,10.09v13.16H87.74z M56.83,17.51c2.69-0.61,5.38,0.5,6.88,2.58l-11.9,2.69
	C52.22,20.27,54.14,18.12,56.83,17.51z M63.78,27.42c-0.94,1.36-2.36,2.32-3.98,2.68c-2.62,0.6-5.35-0.44-6.91-2.63l11.94-2.7
	l1.94-0.44l3.72-0.84c-0.02-0.8-0.13-1.59-0.31-2.37c-1.51-6.43-8.06-10.43-14.61-8.95c-6.56,1.48-10.64,7.9-9.13,14.32
	c1.51,6.43,8.06,10.43,14.61,8.95c3.86-0.88,6.87-3.46,8.38-6.75C69.43,28.69,63.78,27.42,63.78,27.42z M32.24,35.12l-9.36-22.84
	h6.57l5.93,15.49l5.98-15.49h6.57l-9.36,22.84C38.56,35.12,32.24,35.12,32.24,35.12z M11.05,17.51c2.6-0.6,5.31,0.42,6.88,2.58
	L6.02,22.78C6.43,20.26,8.36,18.12,11.05,17.51z M18,27.42c-0.94,1.36-2.36,2.32-3.98,2.68c-2.71,0.61-5.42-0.51-6.91-2.63
	l11.94-2.7L21,24.33l3.72-0.84c-0.02-0.8-0.13-1.59-0.31-2.37c-1.51-6.43-8.06-10.43-14.61-8.95c-6.56,1.48-10.64,7.9-9.13,14.32
	c1.51,6.43,8.06,10.43,14.61,8.95c3.86-0.87,6.87-3.46,8.38-6.75L18,27.42L18,27.42z"/>
</svg>
