<?xml version="1.0" encoding="utf-8"?>
<!-- Generator: Adobe Illustrator 27.3.1, SVG Export Plug-In . SVG Version: 6.00 Build 0)  -->
<svg version="1.1" id="Layer_1" xmlns="http://www.w3.org/2000/svg" xmlns:xlink="http://www.w3.org/1999/xlink" x="0px" y="0px"
	 viewBox="0 0 1366 768" style="enable-background:new 0 0 1366 768;" xml:space="preserve">
<style type="text/css">
	.st0{fill:#FFFFFF;}
</style>
<path class="st0" d="M1141.43,485.62c-2.62,11.27-5.28,22.53-7.86,33.81c-11.74,51.15-23.49,102.3-35.16,153.47
	c-6.28,27.54-12.52,55.08-18.48,82.69c-1.04,4.82-2.83,6.85-7.93,6.6c-7.83-0.38-15.7-0.1-24.14-0.1
	c-21.26-92.51-42.48-184.81-63.69-277.11c-0.67,0.12-1.34,0.24-2.01,0.35c0,91.88,0,183.76,0,276.2c-14.7,0-28.89,0-43.54,0
	c0-122.7,0-245.29,0-368.35c0.95-0.23,2.18-0.78,3.42-0.79c17.64-0.06,35.27,0,52.91-0.09c3.92-0.02,5.87,0.52,6.95,5.4
	c16.54,74.59,33.44,149.1,50.31,223.61c3.04,13.42,6.3,26.8,11.21,40.28c3.3-13.67,6.69-27.31,9.88-41.01
	c15.93-68.49,31.8-137,47.72-205.49c1.39-5.96,2.65-11.98,4.57-17.78c0.65-1.97,3.1-4.73,4.78-4.76
	c18.66-0.34,37.33-0.21,56.46-0.21c0,123.4,0,246.17,0,369.34c-14.31,0-28.31,0-43.05,0c0-91.89,0-183.76,0-275.63
	C1142.98,485.92,1142.21,485.77,1141.43,485.62z"/>
<path class="st0" d="M699.63,285.47c13.21-93.61,26.12-185.13,39.16-277.55c14.37,0,28.67-0.17,42.97,0.24
	c1.66,0.05,4.36,3.17,4.65,5.15c3.05,20.66,5.57,41.4,8.5,62.09c2.96,20.91,6.29,41.76,9.32,62.66c2.42,16.69,4.56,33.42,6.94,50.12
	c3.05,21.45,6.25,42.87,9.31,64.32c1.04,7.33,1.83,14.69,4.6,22.12c13.5-88.41,27.01-176.82,40.63-265.99c13.87,0,28.07,0,43.19,0
	c-19.56,115.28-39.12,230.59-58.75,346.25c-15.17,0-29.53,0.23-43.86-0.24c-2.18-0.07-5.8-3.15-6.14-5.26
	c-3.16-19.81-5.65-39.72-8.55-59.57c-2.98-20.35-6.28-40.66-9.3-61c-2.95-19.84-5.66-39.71-8.59-59.55
	c-3.05-20.62-6.26-41.21-9.36-61.81c-0.71-4.71-1.24-9.45-3.07-14.17c-2.91,19.51-5.8,39.02-8.74,58.53
	c-3.07,20.35-6.24,40.69-9.28,61.05c-2.93,19.57-5.72,39.16-8.63,58.74c-3.03,20.35-6.15,40.69-9.18,61.03
	c-0.83,5.56-1.86,11.12-2.09,16.71c-0.17,4.31-1.83,5.64-5.92,5.59c-12.75-0.15-25.51,0.2-38.24-0.3c-2.18-0.09-5.76-3.15-6.13-5.28
	c-5.25-30.23-9.89-60.57-15.02-90.82c-5.13-30.2-10.82-60.3-15.95-90.5c-4.65-27.35-8.73-54.8-13.35-82.15
	c-4.04-23.9-8.53-47.73-12.74-71.6c-0.32-1.79-0.04-3.68-0.04-5.93c13.87,0,27.35,0,42.1,0
	C671.76,99.83,685.54,191.61,699.63,285.47z"/>
<path class="st0" d="M236.12,100.98c0,84.34,0,168.67,0,253.45c-13.92,0-27.38,0-41.47,0c0-115.06,0-230.23,0-346.45
	c15.18,0,30.54-0.13,45.88,0.22c1.44,0.03,3.4,2.91,4.11,4.83c14.13,38.47,28.19,76.96,42.1,115.5
	c14.36,39.8,28.54,79.67,42.85,119.49c0.95,2.64,2.34,5.12,4.45,9.66c0-84.37,0-166.49,0-249.18c14.1,0,27.75,0,41.88,0
	c0,115.24,0,230.41,0,345.98c-15.96,0-31.6,0-47.63,0c-30.13-84.49-60.31-169.13-90.49-253.77
	C237.24,100.8,236.68,100.89,236.12,100.98z"/>
<path class="st0" d="M413.84,171.64c0-20.36-0.78-40.76,0.21-61.07c1.07-21.83,2.44-43.86,12.89-63.91
	c11.43-21.93,29.05-36.4,53.18-41.61c19.47-4.21,39.19-4,58.69,1.23c24.61,6.6,40.76,22.55,50.88,45.32
	c6.61,14.87,9.09,30.62,9.77,46.74c1.01,23.78,2.67,47.55,2.86,71.34c0.24,28.2,0.21,56.48-1.56,84.6
	c-1.48,23.36-3.51,47.01-16.57,67.84c-14.62,23.32-35.7,35.38-62.85,37.66c-17.21,1.44-34.17,1.19-50.71-4.76
	c-28.77-10.36-44.05-32.18-50.12-60.75C411.93,253.82,413.92,212.64,413.84,171.64z M553.69,88.99
	c-1.5-26.73-11.99-39.28-37.65-44.2c-24.33-4.67-47.85,5.32-52.9,32.9c-3.85,21.06-5.07,42.86-5.01,64.33
	c0.11,44.4,1.5,88.8,3.07,133.18c0.83,23.5,13.51,39.25,36.4,43.11c23.78,4.02,45.47-2.92,54.14-30.88
	c2.5-8.07,3.37-16.87,3.61-25.38C555.88,243.89,555.9,128.45,553.69,88.99z"/>
<path class="st0" d="M1366,717.83c0,15.48,0,29.48,0,43.87c-44.8,0-89.19,0-134.16,0c0-122.81,0-245.58,0-368.86
	c44.58,0,89.16,0,134.16,0c0,13.72,0,27.19,0,41.55c-28.83,0-57.69,0-87.03,0c0,36.8,0,72.72,0,109.24c28.4,0,56.51,0,85.22,0
	c0,14.79,0,28.99,0,44.09c-28.31,0-56.63,0-85.32,0c0,43.67,0,86.45,0,130.12C1307.72,717.83,1336.58,717.83,1366,717.83z"/>
<path class="st0" d="M657.69,562.29c0,14.08,0,27.54,0,41.4c-218.43,0-436.48,0-655.17,0c0-13.52,0-27.18,0-41.4
	C220.61,562.29,438.84,562.29,657.69,562.29z"/>
<path class="st0" d="M771.83,761.89c-16.01,0-30.9,0-46.61,0c0-108.82,0-217.46,0-326.96c-17.18,0-33.56,0-50.43,0
	c0-14.51,0-28.16,0-42.2c49.04,0,97.77,0,147.13,0c0,13.57,0,27.22,0,41.77c-16.24,0-32.62,0-50.09,0
	C771.83,544.21,771.83,653.04,771.83,761.89z"/>
<path class="st0" d="M893.64,761.7c-15.61,0-30.69,0-46.2,0c0-122.92,0-245.46,0-368.68c15.09,0,30.36,0,46.2,0
	C893.64,515.55,893.64,638.28,893.64,761.7z"/>
<path class="st0" d="M237.17,529.5c-23.81-0.9-44.5-4.26-62.9-17.13c-21.55-15.07-29.02-41.85-24.99-64.7
	c1.7-9.65,5.77-19.38,10.84-27.83c9.76-16.26,26.02-24.12,43.82-28.23c28.58-6.61,56.61-5.33,83.68,7.42
	c21.85,10.29,31.95,28.83,34.71,51.24c2.75,22.3-3.35,42.62-20.66,58.29c-12.31,11.15-27.53,16.01-43.43,18.84
	C250.62,528.77,242.78,528.97,237.17,529.5z M236.97,503.43c4.21-0.54,9.87-0.82,15.33-2.04c18.27-4.1,31.63-11.26,36.05-37.03
	c2.8-16.3-7.03-36.88-21.98-43.98c-17.73-8.42-36.62-8.44-54.71-2.81c-30.1,9.36-36.49,44.12-21.37,66.25
	C201.13,499.66,218.06,502.28,236.97,503.43z"/>
<path class="st0" d="M982.75,312.53c9.42,0,18.88-0.2,28.32,0.17c1.78,0.07,4.74,2.21,4.98,3.73c1.4,8.94,7.4,13.83,14.99,16.19
	c15.6,4.85,31.46,5.17,47.09-0.47c6.02-2.17,10.44-5.95,10.52-12.8c0.08-7.25-4.48-11.7-10.92-13.24
	c-15.27-3.66-30.82-6.19-46.03-10.05c-10.25-2.6-20.88-5.32-30.02-10.38c-24.49-13.56-19.56-44.97,1.08-56.58
	c12.57-7.07,25.93-10.94,40.46-11.13c19.75-0.26,39.36-0.16,56.77,11.16c11.57,7.52,19.36,17.3,18.84,32.48
	c-10.71,0-20.94,0-31.71,0c-3.63-14.62-13.65-21.3-28.65-20.75c-8.66,0.32-17.35,0.72-25.96,1.72c-6.76,0.79-11.63,5.23-12.65,11.78
	c-1.1,7.08,4.49,10.91,10.28,12.53c11.48,3.22,23.19,5.63,34.85,8.12c14.29,3.05,28.92,4.68,41.73,12.78
	c11.1,7.02,17.43,16.66,17,29.9c-0.42,12.97-6.26,23.14-17.66,29.69c-12.79,7.35-26.57,11.14-41.38,10.83
	c-17.16-0.36-34.42,1.18-51.12-4.94C993.94,346.1,981.98,330.99,982.75,312.53z"/>
<path class="st0" d="M603.53,476.13c17.94,16.67,35.07,32.58,53.56,49.76c-13.91,0-26.01,0.21-38.09-0.19
	c-2.23-0.07-4.67-2.24-6.53-3.97c-14.28-13.3-28.65-26.51-42.54-40.22c-5.85-5.77-12.23-7.19-20.67-5.52c0,15.55,0,31.42,0,47.78
	c-10.71,0-20.56,0-30.81,0c0-43.61,0-86.94,0-130.85c2.02-0.19,4.08-0.55,6.14-0.56c25.51-0.04,51.03-0.49,76.52,0.16
	c14.03,0.36,27.63,3.52,37.41,15.19c18.68,22.29,6.52,59.49-21.6,65.99C612.82,474.64,608.64,475.21,603.53,476.13z M549.42,416.54
	c0,11.91,0,24.44,0,37.66c16.03,0,31.68,0.63,47.24-0.2c12.54-0.67,17.98-6.83,18.97-18.37c0.76-8.81-5.41-17.57-17-18.7
	C582.5,415.36,566.1,416.54,549.42,416.54z"/>
<path class="st0" d="M487.18,392.77c0,26.43,0.03,52.33-0.03,78.24c-0.01,4.05,0.19,8.22-0.67,12.11
	c-5.44,24.52-20.69,38.53-45.4,43.41c-21.61,4.27-42.65,3.59-63.3-4c-19.3-7.08-30.42-22.4-31.76-41.61
	c-2.03-29.04-0.53-58.33-0.53-88.06c9.24,0,19.63,0,30.89,0c0,23.99-0.13,47.8,0.09,71.6c0.05,5.59,0.74,11.29,2.05,16.72
	c2.71,11.18,12.13,18.39,24.04,20.39c13.81,2.32,27.21,2.86,39.65-4.93c9.69-6.07,13.84-15.23,13.91-26.3
	c0.14-23.07,0.04-46.15,0.04-69.22c0-2.65,0-5.29,0-8.36C467.1,392.77,477.31,392.77,487.18,392.77z"/>
<path class="st0" d="M925.57,141.82c66.56,0,132.63,0,199.27,0c0,14.29,0,28.48,0,43.16c-66.32,0-132.58,0-199.27,0
	C925.57,170.74,925.57,156.74,925.57,141.82z"/>
<path class="st0" d="M93.06,523.9c-11.04,0-21.24,0-32.56,0c0-14.34-0.97-28.69,0.3-42.84c1.07-12-3.77-20.32-11.03-28.8
	C33.22,432.95,17.22,413.17,0,392.37c12.63,0,23.9-0.24,35.13,0.21c2.17,0.09,4.67,2.5,6.28,4.44
	C53.1,411.05,64.59,425.24,76.65,440c8.28-9.9,16.5-19.65,24.63-29.47c3.59-4.34,6.52-9.35,10.65-13.07
	c2.86-2.58,7.15-4.63,10.95-4.89c9.66-0.68,19.4-0.23,30.51-0.23c-11.22,13.76-21.58,26.6-32.08,39.31
	c-8.56,10.37-17.48,20.45-25.8,31c-1.78,2.25-2.29,5.98-2.33,9.04C92.95,488.78,93.06,505.87,93.06,523.9z"/>
<path class="st0" d="M925.68,221.7c10.77,0,20.95,0,31.55,0c0,44.2,0,88.01,0,132.5c-10.24,0-20.62,0-31.55,0
	C925.68,310.36,925.68,266.36,925.68,221.7z"/>
</svg>
